<svg width="60" height="60" viewBox="0 0 60 60" fill="none" xmlns="http://www.w3.org/2000/svg">
<path d="M29.1718 3.73007C29.6015 3.71641 30.0314 3.71329 30.4612 3.72073C30.8911 3.72816 31.3206 3.74613 31.7496 3.77464C32.1786 3.80316 32.6067 3.84217 33.0338 3.8917C33.4609 3.94122 33.8865 4.00119 34.3107 4.0716C34.7349 4.14202 35.157 4.22279 35.5772 4.31393C35.9974 4.40507 36.4151 4.50645 36.8303 4.61809C37.2456 4.72973 37.6578 4.85149 38.067 4.98336C38.4763 5.11523 38.882 5.25706 39.2843 5.40885C39.6866 5.56064 40.0849 5.72221 40.4793 5.89356C40.8736 6.06489 41.2635 6.24578 41.649 6.43625C42.0344 6.62676 42.415 6.82659 42.7907 7.03573C43.1663 7.24491 43.5366 7.46315 43.9016 7.69045C44.2666 7.9178 44.6257 8.15395 44.9791 8.39891C45.3324 8.64387 45.6796 8.89735 46.0205 9.15934C46.3614 9.42137 46.6957 9.69158 47.0234 9.96998C47.351 10.2484 47.6716 10.5347 47.9852 10.8288C48.2988 11.123 48.605 11.4246 48.9038 11.7338C49.2026 12.043 49.4936 12.3593 49.7769 12.6828C50.0602 13.0062 50.3353 13.3364 50.6024 13.6734C50.8694 14.0104 51.1281 14.3537 51.3783 14.7034C51.6285 15.053 51.87 15.4086 52.1027 15.7701C52.3355 16.1316 52.5593 16.4987 52.774 16.8712C52.9887 17.2437 53.1942 17.6212 53.3904 18.0038C53.5867 18.3864 53.7734 18.7735 53.9505 19.1653C54.1278 19.557 54.2953 19.9529 54.453 20.3529C54.6108 20.7528 54.7587 21.1564 54.8967 21.5636C55.0346 21.9709 55.1625 22.3812 55.2803 22.7947C55.3981 23.2082 55.5058 23.6244 55.6032 24.0431C55.7006 24.4619 55.7876 24.8829 55.8644 25.3059C55.9411 25.729 56.0074 26.1537 56.0633 26.58C56.1192 27.0063 56.1646 27.4337 56.1995 27.8623C56.2345 28.2908 56.2588 28.72 56.2727 29.1497C56.2865 29.5794 56.2898 30.0093 56.2826 30.4392C56.2753 30.8691 56.2576 31.2985 56.2292 31.7275C56.2009 32.1566 56.162 32.5847 56.1127 33.0118C56.0634 33.4389 56.0036 33.8646 55.9334 34.2888C55.8631 34.713 55.7825 35.1352 55.6916 35.5554C55.6006 35.9756 55.4994 36.3934 55.388 36.8087C55.2765 37.2239 55.1549 37.6362 55.0232 38.0455C54.8915 38.4548 54.7498 38.8606 54.5982 39.2629C54.4466 39.6653 54.2852 40.0637 54.1141 40.4581C53.9429 40.8525 53.7622 41.2425 53.5719 41.6281C53.3815 42.0136 53.1819 42.3943 52.9729 42.77C52.7639 43.1458 52.5458 43.5162 52.3186 43.8812C52.0914 44.2463 51.8555 44.6055 51.6107 44.959C51.3659 45.3124 51.1125 45.6597 50.8506 46.0007C50.5888 46.3418 50.3187 46.6762 50.0405 47.0039C49.7622 47.3317 49.4761 47.6525 49.1821 47.9662C48.888 48.2799 48.5865 48.5863 48.2774 48.8852C47.9684 49.1841 47.6522 49.4753 47.3289 49.7587C47.0055 50.0421 46.6754 50.3174 46.3386 50.5846C46.0017 50.8518 45.6585 51.1106 45.309 51.361C44.9594 51.6113 44.6039 51.853 44.2425 52.0859C43.8811 52.3188 43.5142 52.5427 43.1418 52.7576C42.7694 52.9725 42.3919 53.1781 42.0094 53.3745C41.6269 53.5709 41.2398 53.7578 40.8482 53.9352C40.4565 54.1125 40.0607 54.2802 39.6608 54.4381C39.2609 54.5961 38.8574 54.7441 38.4502 54.8823C38.0431 55.0204 37.6327 55.1485 37.2193 55.2665C36.8058 55.3845 36.3897 55.4923 35.971 55.5898C35.5522 55.6874 35.1313 55.7747 34.7083 55.8516C34.2853 55.9285 33.8606 55.995 33.4344 56.0511C33.0081 56.1072 32.5807 56.1528 32.1521 56.1879C31.7236 56.223 31.2944 56.2475 30.8647 56.2616C30.4348 56.2756 30.0047 56.2791 29.5745 56.272C29.1444 56.2649 28.7147 56.2473 28.2854 56.2191C27.8562 56.1909 27.4278 56.1522 27.0005 56.103C26.5731 56.0538 26.1472 55.9941 25.7227 55.924C25.2983 55.8539 24.8758 55.7734 24.4553 55.6825C24.0348 55.5916 23.6168 55.4905 23.2013 55.379C22.7858 55.2676 22.3732 55.1461 21.9637 55.0145C21.5541 54.8828 21.148 54.7411 20.7455 54.5895C20.3428 54.4379 19.9442 54.2765 19.5495 54.1053C19.1549 53.9341 18.7646 53.7533 18.3789 53.563C17.993 53.3726 17.6121 53.1729 17.2362 52.9638C16.8602 52.7548 16.4896 52.5366 16.1243 52.3094C15.759 52.0821 15.3996 51.8461 15.0459 51.6011C14.6922 51.3562 14.3447 51.1028 14.0035 50.8408C13.6622 50.5788 13.3277 50.3086 12.9997 50.0302C12.6718 49.7518 12.3508 49.4655 12.0369 49.1713C11.723 48.8771 11.4165 48.5754 11.1174 48.2662C10.8183 47.957 10.527 47.6406 10.2435 47.3171C9.95992 46.9935 9.68449 46.6632 9.41719 46.3262C9.14984 45.9891 8.89094 45.6457 8.64047 45.2959C8.39004 44.9462 8.14832 44.5905 7.91531 44.2288C7.6823 43.8672 7.45832 43.5 7.24336 43.1274C7.02844 42.7547 6.82275 42.377 6.62631 41.9943C6.4299 41.6115 6.24301 41.2242 6.06562 40.8322C5.88824 40.4403 5.72057 40.0443 5.56263 39.6441C5.40469 39.244 5.25667 38.8402 5.11856 38.4328C4.98046 38.0254 4.85243 37.6148 4.73449 37.2011C4.61654 36.7873 4.50882 36.371 4.41132 35.952C4.31382 35.533 4.22667 35.1118 4.14985 34.6885C4.07304 34.2652 4.00666 33.8403 3.95071 33.4138C3.89476 32.9872 3.84932 32.5596 3.81438 32.1308C3.77943 31.702 3.75503 31.2726 3.74118 30.8427C3.72732 30.4127 3.72402 29.9826 3.73128 29.5525C3.73855 29.1224 3.75636 28.6927 3.78473 28.2634C3.8131 27.8341 3.85198 27.4058 3.90138 26.9785C3.95078 26.5511 4.01064 26.1252 4.08095 25.7008C4.15127 25.2764 4.23196 24.854 4.32302 24.4335C4.41408 24.013 4.51541 23.5951 4.627 23.1796C4.73859 22.7641 4.8603 22.3516 4.99215 21.9422C5.12399 21.5327 5.26581 21.1266 5.4176 20.7241C5.56938 20.3216 5.73096 19.923 5.90232 19.5284C6.07369 19.1338 6.25463 18.7437 6.44514 18.3579C6.63564 17.9722 6.83551 17.5914 7.04473 17.2155C7.25398 16.8396 7.4723 16.4691 7.69969 16.1039C7.92711 15.7387 8.16336 15.3794 8.40844 15.0258C8.65351 14.6722 8.90711 14.3249 9.16922 13.9838C9.43137 13.6426 9.70172 13.3081 9.98027 12.9803C10.2588 12.6525 10.5453 12.3317 10.8395 12.0179C11.1338 11.7041 11.4357 11.3977 11.7451 11.0988C12.0544 10.7998 12.3709 10.5087 12.6946 10.2253C13.0182 9.94188 13.3486 9.66659 13.6858 9.3994C14.023 9.13221 14.3665 8.87346 14.7164 8.62315C15.0663 8.37284 15.4221 8.13127 15.7838 7.89846C16.1456 7.66561 16.5128 7.44178 16.8855 7.22698C17.2583 7.01217 17.6361 6.80664 18.0189 6.61039C18.4017 6.41414 18.7891 6.22743 19.1811 6.05024C19.5732 5.873 19.9693 5.7055 20.3695 5.54773C20.7697 5.38997 21.1736 5.24212 21.5811 5.10418C21.9886 4.96625 22.3992 4.8384 22.8129 4.72063C23.2267 4.60287 23.6431 4.49533 24.0622 4.39801C24.4812 4.30069 24.9024 4.21372 25.3257 4.13709C25.7491 4.06045 26.174 3.99426 26.6006 3.9385C27.0271 3.88273 27.4548 3.83747 27.8836 3.80272C28.3124 3.76796 28.7418 3.74374 29.1718 3.73007ZM30.9243 53.9486C31.3167 53.9335 31.7086 53.9088 32.0998 53.8744C32.4911 53.8401 32.8812 53.7961 33.2703 53.7426C33.6595 53.6891 34.047 53.6261 34.433 53.5536C34.819 53.4811 35.203 53.3991 35.5849 53.3077C35.9669 53.2163 36.3464 53.1155 36.7234 53.0055C37.1004 52.8955 37.4745 52.7763 37.8457 52.6479C38.2169 52.5194 38.5847 52.382 38.9491 52.2355C39.3135 52.089 39.6741 51.9337 40.0309 51.7695C40.3877 51.6053 40.7402 51.4325 41.0885 51.251C41.4368 51.0695 41.7804 50.8795 42.1194 50.6812C42.4584 50.4828 42.7923 50.2762 43.1211 50.0614C43.4499 49.8466 43.7733 49.6239 44.0911 49.3933C44.409 49.1626 44.7211 48.9243 45.0272 48.6782C45.3334 48.4323 45.6334 48.1789 45.9271 47.9182C46.2209 47.6575 46.508 47.3897 46.7886 47.1149C47.0692 46.8401 47.3428 46.5585 47.6096 46.2703C47.8763 45.982 48.1359 45.6873 48.3882 45.3863C48.6404 45.0853 48.8852 44.7783 49.1224 44.4653C49.3596 44.1522 49.589 43.8336 49.8105 43.5093C50.0321 43.185 50.2456 42.8554 50.4509 42.5206C50.6563 42.1859 50.8533 41.8463 51.042 41.5018C51.2307 41.1573 51.4108 40.8085 51.5824 40.4551C51.7539 40.1018 51.9167 39.7445 52.0707 39.3832C52.2247 39.0219 52.3697 38.6571 52.5058 38.2886C52.6419 37.9202 52.7688 37.5487 52.8867 37.174C53.0045 36.7994 53.1131 36.422 53.2124 36.042C53.3117 35.662 53.4016 35.2798 53.4821 34.8954C53.5627 34.511 53.6337 34.1248 53.6952 33.737C53.7568 33.3491 53.8088 32.9599 53.8513 32.5694C53.8937 32.179 53.9265 31.7877 53.9498 31.3957C53.973 31.0036 53.9866 30.6112 53.9906 30.2185C53.9945 29.8257 53.9888 29.4331 53.9735 29.0407C53.9582 28.6482 53.9333 28.2564 53.8987 27.8652C53.8641 27.4739 53.82 27.0838 53.7662 26.6947C53.7125 26.3056 53.6493 25.9181 53.5765 25.5322C53.5037 25.1462 53.4215 24.7623 53.3299 24.3804C53.2383 23.9984 53.1373 23.619 53.027 23.2421C52.9168 22.8651 52.7974 22.4911 52.6687 22.12C52.5401 21.7489 52.4024 21.3812 52.2557 21.0168C52.109 20.6525 51.9535 20.292 51.7891 19.9353C51.6247 19.5786 51.4517 19.2262 51.2699 18.878C51.0883 18.5298 50.8981 18.1863 50.6995 17.8474C50.5009 17.5086 50.2942 17.1748 50.0792 16.8461C49.8642 16.5174 49.6413 16.1941 49.4105 15.8764C49.1796 15.5587 48.9411 15.2468 48.6949 14.9407C48.4487 14.6347 48.1952 14.3349 47.9344 14.0413C47.6735 13.7477 47.4055 13.4607 47.1305 13.1803C46.8555 12.8999 46.5738 12.6264 46.2854 12.3598C45.997 12.0932 45.7022 11.8339 45.401 11.5818C45.0999 11.3297 44.7927 11.0851 44.4795 10.8481C44.1663 10.611 43.8476 10.3818 43.5231 10.1605C43.1987 9.9391 42.869 9.72584 42.5341 9.52069C42.1992 9.31553 41.8595 9.11869 41.5149 8.93018C41.1703 8.7417 40.8213 8.5618 40.4679 8.39047C40.1145 8.2191 39.7571 8.05653 39.3957 7.90274C39.0344 7.74895 38.6694 7.60412 38.3009 7.46826C37.9324 7.33241 37.5608 7.20567 37.1861 7.08805C36.8113 6.97043 36.4339 6.86209 36.0539 6.76303C35.6738 6.66397 35.2916 6.57428 34.9071 6.49397C34.5227 6.41366 34.1365 6.34284 33.7485 6.28151C33.3606 6.22018 32.9714 6.1684 32.5809 6.12617C32.1904 6.08395 31.7991 6.05133 31.4071 6.02832C31.015 6.00535 30.6226 5.992 30.2299 5.98825C29.8371 5.98453 29.4445 5.99045 29.0521 6.006C28.6599 6.02155 28.2684 6.0467 27.8774 6.08147C27.4865 6.11623 27.0967 6.16055 26.708 6.21442C26.3192 6.26832 25.932 6.33172 25.5464 6.40461C25.1608 6.4775 24.7772 6.55981 24.3956 6.65153C24.014 6.74325 23.6349 6.84428 23.2583 6.95463C22.8816 7.06494 22.5079 7.18444 22.1371 7.31311C21.7664 7.44178 21.399 7.57948 21.035 7.72619C20.671 7.87287 20.3108 8.0284 19.9544 8.19278C19.598 8.35715 19.2459 8.53018 18.898 8.71186C18.5501 8.8935 18.2069 9.08358 17.8683 9.28209C17.5298 9.48061 17.1963 9.68731 16.8679 9.90219C16.5395 10.117 16.2165 10.3398 15.8991 10.5706C15.5816 10.8013 15.2699 11.0396 14.9642 11.2856C14.6584 11.5317 14.3588 11.7851 14.0655 12.0458C13.7721 12.3065 13.4854 12.5742 13.2052 12.849C12.925 13.1239 12.6517 13.4054 12.3853 13.6936C12.1189 13.9818 11.8597 14.2763 11.6078 14.5773C11.3559 14.8782 11.1115 15.1851 10.8746 15.498C10.6378 15.8109 10.4087 16.1295 10.1875 16.4536C9.96625 16.7778 9.7531 17.1072 9.54803 17.4418C9.34295 17.7764 9.14621 18.1159 8.95781 18.4602C8.76941 18.8045 8.58957 19.1531 8.41828 19.5062C8.24699 19.8594 8.08445 20.2164 7.93066 20.5775C7.77691 20.9386 7.63209 21.3032 7.49619 21.6714C7.36033 22.0396 7.23357 22.4109 7.11592 22.7853C6.99826 23.1597 6.88986 23.5368 6.79072 23.9165C6.69158 24.2963 6.60182 24.6782 6.52143 25.0623C6.44103 25.4465 6.37012 25.8323 6.30867 26.22C6.24719 26.6076 6.19527 26.9965 6.15293 27.3867C6.11055 27.7768 6.07775 28.1678 6.05455 28.5596C6.03139 28.9513 6.01783 29.3435 6.01389 29.7359C6.00994 30.1283 6.01562 30.5206 6.03094 30.9128C6.04625 31.3049 6.07117 31.6965 6.1057 32.0874C6.14023 32.4784 6.18434 32.8682 6.23801 33.257C6.29168 33.6458 6.35484 34.033 6.4275 34.4187C6.50016 34.8044 6.58225 35.188 6.67377 35.5697C6.76525 35.9513 6.86605 36.3305 6.97617 36.7072C7.08625 37.0839 7.20553 37.4576 7.334 37.8285C7.46244 38.1994 7.5999 38.5668 7.74639 38.9309C7.89287 39.295 8.0482 39.6553 8.21238 40.0118C8.37656 40.3682 8.54937 40.7205 8.73082 41.0685C8.91226 41.4165 9.10215 41.7598 9.30047 42.0985C9.49879 42.4371 9.70529 42.7707 9.91998 43.0993C10.1346 43.4278 10.3572 43.7509 10.5878 44.0685C10.8183 44.3861 11.0565 44.6979 11.3023 45.0038C11.5482 45.3098 11.8014 45.6095 12.0619 45.903C12.3225 46.1965 12.5901 46.4834 12.8647 46.7638C13.1393 47.0441 13.4207 47.3176 13.7087 47.5841C13.9968 47.8507 14.2912 48.11 14.592 48.3621C14.8927 48.6142 15.1995 48.8588 15.5123 49.0958C15.8251 49.3329 16.1435 49.5622 16.4675 49.7836C16.7916 50.005 17.1208 50.2183 17.4553 50.4236C17.7898 50.6288 18.1291 50.8258 18.4733 51.0144C18.8175 51.203 19.1661 51.3831 19.5191 51.5546C19.8721 51.7261 20.2291 51.8888 20.5901 52.0428C20.9511 52.1968 21.3156 52.3418 21.6837 52.4779C22.0519 52.614 22.4231 52.741 22.7974 52.8589C23.1718 52.9767 23.5488 53.0853 23.9285 53.1847C24.3081 53.2841 24.69 53.3741 25.0741 53.4547C25.4582 53.5353 25.844 53.6064 26.2316 53.6681C26.6192 53.7298 27.008 53.782 27.3982 53.8245C27.7883 53.8672 28.1793 53.9002 28.5711 53.9236C28.9628 53.947 29.3549 53.9608 29.7473 53.965C30.1398 53.9691 30.5321 53.9637 30.9243 53.9486Z" fill="white"/>
<path d="M27.9874 34.0551C28.7868 34.0372 29.5883 34.0624 30.3882 34.0575C31.0301 34.0536 31.7115 33.9998 32.3493 34.0708C32.6643 34.1059 32.9751 34.1919 33.2697 34.3075C34.3933 34.7487 35.1133 35.6183 35.5904 36.702L37.2153 36.6911C37.2626 36.5687 37.3105 36.4463 37.3668 36.3276C37.8046 35.4029 38.5763 34.6582 39.5447 34.3132C39.7033 34.2561 39.8648 34.2093 40.0293 34.1728C40.1938 34.1362 40.3599 34.1101 40.5277 34.0945C40.8338 34.0665 41.1494 34.0873 41.4568 34.0906L42.8387 34.0934C43.6577 34.093 44.6996 34.0113 45.489 34.1088C45.9187 34.1619 46.3384 34.3 46.7276 34.4874C47.644 34.9287 48.3007 35.7252 48.6301 36.681C49.2888 36.6709 50.0085 36.5802 50.5363 37.0614C50.8241 37.3239 50.9796 37.6838 50.9962 38.071C51.0131 38.468 50.8872 38.8629 50.608 39.1513C50.052 39.7259 49.197 39.5504 48.4731 39.5517C48.4057 39.7372 48.3371 39.9214 48.2513 40.0993C48.2249 40.1539 48.1971 40.2079 48.168 40.2611C48.1389 40.3144 48.1085 40.3669 48.0767 40.4187C48.0451 40.4704 48.0121 40.5214 47.9779 40.5716C47.9437 40.6217 47.9082 40.671 47.8716 40.7194C47.835 40.7678 47.7971 40.8153 47.7582 40.8618C47.7192 40.9083 47.6791 40.9538 47.6379 40.9984C47.5966 41.043 47.5543 41.0865 47.511 41.129C47.4676 41.1714 47.4232 41.2128 47.3778 41.2531C47.3324 41.2934 47.286 41.3325 47.2387 41.3705C47.1914 41.4086 47.1431 41.4454 47.0939 41.481C47.0448 41.5166 46.9948 41.551 46.9439 41.5842C46.8931 41.6173 46.8415 41.6492 46.7891 41.6799C46.7367 41.7105 46.6835 41.7398 46.6296 41.7678C46.5758 41.7958 46.5213 41.8224 46.4661 41.8477C46.411 41.873 46.3552 41.897 46.2988 41.9196C46.2425 41.9421 46.1856 41.9633 46.1282 41.9831C45.9787 42.0344 45.8265 42.0759 45.6717 42.1077C45.5168 42.1395 45.3606 42.1613 45.203 42.173C44.4583 42.2328 43.6835 42.1824 42.9347 42.1851C42.1451 42.1879 41.0639 42.255 40.3177 42.1607C40.2185 42.1475 40.12 42.1301 40.0221 42.1087C39.9244 42.0872 39.8276 42.0618 39.7319 42.0324C39.6362 42.003 39.5418 41.9697 39.4489 41.9325C39.3559 41.8953 39.2647 41.8543 39.1751 41.8095C38.2155 41.3345 37.6026 40.5883 37.265 39.5809L35.476 39.582C35.3341 40.0063 35.0987 40.4062 34.8212 40.7554C34.1605 41.5868 33.2249 42.0658 32.1752 42.1865C31.3387 42.2148 30.4984 42.1904 29.6612 42.1934C28.9755 42.1959 28.2564 42.2465 27.5769 42.1647C27.3956 42.1429 27.2167 42.1085 27.0403 42.0615C26.8638 42.0144 26.6916 41.9552 26.5235 41.8838C25.4566 41.4327 24.904 40.6452 24.4797 39.6098C23.8725 39.6017 23.2653 39.6019 22.658 39.6106C22.5811 39.8097 22.4954 40.0108 22.3957 40.1995C22.3671 40.2532 22.3373 40.3062 22.3061 40.3584C22.2749 40.4106 22.2425 40.4621 22.2088 40.5127C22.1751 40.5634 22.1401 40.6131 22.1039 40.6621C22.0678 40.711 22.0305 40.759 21.992 40.8061C21.9535 40.8532 21.9138 40.8993 21.873 40.9445C21.8322 40.9896 21.7904 41.0337 21.7474 41.0768C21.7045 41.1199 21.6605 41.1619 21.6154 41.2028C21.5704 41.2437 21.5245 41.2835 21.4775 41.3222C21.4305 41.3609 21.3826 41.3984 21.3338 41.4347C21.285 41.471 21.2353 41.5061 21.1848 41.5399C21.1343 41.5738 21.0829 41.6064 21.0308 41.6378C20.9786 41.6691 20.9258 41.6992 20.8721 41.7279C20.8185 41.7567 20.7643 41.7841 20.7093 41.8102C20.6543 41.8362 20.5988 41.8609 20.5426 41.8843C20.4864 41.9077 20.4297 41.9296 20.3724 41.9502C20.3152 41.9707 20.2574 41.9898 20.1992 42.0076C20.0797 42.0445 19.9584 42.0747 19.8355 42.0983C19.7126 42.1218 19.5888 42.1386 19.4641 42.1485C18.6623 42.2105 17.8194 42.1585 17.0129 42.1582C16.2238 42.1579 15.2127 42.2227 14.4512 42.1171C14.3518 42.1038 14.2533 42.0861 14.1555 42.0639C14.0577 42.0417 13.9612 42.0152 13.8658 41.9844C13.7704 41.9536 13.6766 41.9185 13.5843 41.8792C13.4921 41.8399 13.4018 41.7966 13.3135 41.7492C12.4776 41.2984 11.78 40.463 11.5122 39.5492C10.8286 39.5435 10.0028 39.6511 9.4495 39.1756C9.16368 38.9299 8.9845 38.5911 8.96241 38.2133C8.96089 38.1899 8.95995 38.1664 8.9596 38.143C8.95929 38.1195 8.95954 38.0961 8.96036 38.0726C8.96118 38.0492 8.96261 38.0258 8.96464 38.0024C8.96663 37.979 8.96923 37.9557 8.97243 37.9324C8.9756 37.9092 8.97937 37.8861 8.98374 37.863C8.98808 37.8399 8.993 37.817 8.99851 37.7942C9.00398 37.7714 9.01003 37.7487 9.01667 37.7262C9.02331 37.7037 9.03052 37.6814 9.03829 37.6593C9.04607 37.6371 9.05437 37.6152 9.0632 37.5935C9.07206 37.5717 9.08148 37.5502 9.09144 37.529C9.10136 37.5077 9.11183 37.4867 9.12284 37.466C9.13382 37.4453 9.14532 37.4248 9.15736 37.4047C9.16939 37.3846 9.18191 37.3647 9.19491 37.3452C9.20792 37.3257 9.22142 37.3065 9.2354 37.2877C9.24939 37.2688 9.26384 37.2503 9.27876 37.2322C9.29365 37.2141 9.309 37.1964 9.32482 37.179C9.87683 36.5759 10.6783 36.7434 11.4047 36.7235C11.4646 36.4856 11.5607 36.2574 11.6745 36.0406C12.1319 35.1692 12.8873 34.5387 13.8319 34.2569C13.9557 34.2199 14.0811 34.1899 14.2083 34.1666C14.3353 34.1434 14.4633 34.1272 14.5922 34.118C15.427 34.0557 16.2945 34.1056 17.1338 34.1028C17.8738 34.1004 18.9579 34.0345 19.6625 34.1329C19.7821 34.1493 19.9007 34.1712 20.0184 34.1986C20.1359 34.226 20.252 34.2588 20.3665 34.297C20.481 34.3352 20.5936 34.3786 20.7041 34.4273C20.8146 34.476 20.9226 34.5297 21.0281 34.5884C21.9052 35.0716 22.516 35.8231 22.79 36.7829C23.3364 36.7379 23.8969 36.7595 24.4452 36.7571C24.4633 36.6918 24.4833 36.6271 24.5053 36.563C24.5272 36.4988 24.551 36.4354 24.5768 36.3728C24.6025 36.3101 24.6301 36.2482 24.6595 36.1872C24.6889 36.1261 24.7201 36.066 24.7531 36.0068C24.7861 35.9476 24.8209 35.8895 24.8574 35.8324C24.8939 35.7753 24.932 35.7193 24.9718 35.6645C25.0116 35.6096 25.053 35.556 25.0961 35.5037C25.1391 35.4513 25.1836 35.4003 25.2297 35.3506C25.2736 35.3024 25.3187 35.2554 25.3649 35.2095C25.4111 35.1636 25.4584 35.1189 25.5068 35.0753C25.5553 35.0317 25.6047 34.9894 25.6552 34.9482C25.7057 34.907 25.7572 34.8671 25.8096 34.8285C25.862 34.7899 25.9154 34.7525 25.9697 34.7165C26.0239 34.6804 26.079 34.6458 26.135 34.6125C26.191 34.5791 26.2477 34.5472 26.3053 34.5167C26.3628 34.4861 26.4211 34.4569 26.48 34.4292C26.539 34.4015 26.5986 34.3753 26.6588 34.3505C26.7191 34.3258 26.7799 34.3025 26.8413 34.2807C26.9027 34.2589 26.9645 34.2386 27.0269 34.2198C27.0893 34.2011 27.1521 34.1838 27.2153 34.1681C27.2785 34.1524 27.3421 34.1383 27.406 34.1257C27.4699 34.1131 27.5341 34.1021 27.5986 34.0927C27.663 34.0833 27.7277 34.0754 27.7925 34.0692C27.8574 34.0629 27.9223 34.0582 27.9874 34.0551ZM39.9719 36.7187C40.4075 36.9472 40.7781 37.2291 40.9244 37.7242C41.0363 38.1027 40.9998 38.5293 40.806 38.875C40.6153 39.2151 40.3234 39.3938 39.9921 39.5718C40.1966 39.6743 40.381 39.7495 40.6101 39.7795C41.1481 39.85 41.7395 39.7966 42.2825 39.7928L45.1871 39.7944C45.4436 39.7409 45.6582 39.6679 45.8861 39.537C45.4475 39.3692 45.0813 39.1465 44.8799 38.6986C44.7286 38.3623 44.7127 37.9565 44.8517 37.6137C45.0525 37.118 45.4501 36.9024 45.9124 36.7006C45.6918 36.5748 45.4939 36.4992 45.2411 36.4643C44.6347 36.3806 43.8773 36.4415 43.2496 36.4433C42.441 36.4456 41.6092 36.4057 40.8033 36.4542C40.5091 36.5031 40.2385 36.5831 39.9719 36.7187ZM14.0607 36.7442C14.5172 36.8659 14.9015 37.0478 15.145 37.4793C15.3311 37.8092 15.3678 38.189 15.2643 38.5518C15.1608 38.9145 14.938 39.2232 14.6042 39.4058C14.4677 39.4805 14.3086 39.5242 14.1612 39.5727C14.3926 39.6784 14.5927 39.7621 14.8473 39.7959C15.3998 39.8691 16.0165 39.8193 16.5766 39.8192C17.4671 39.819 18.3698 39.8469 19.2589 39.8054C19.4719 39.7728 19.7625 39.7351 19.944 39.6162L19.9362 39.5838C19.5169 39.3833 19.1781 39.1487 19.0114 38.6901C18.8802 38.3288 18.8985 37.8692 19.0677 37.5243C19.246 37.1608 19.5705 36.9271 19.9495 36.8077C20.0356 36.7813 20.1222 36.7572 20.2095 36.7354C19.9468 36.6297 19.698 36.5376 19.4169 36.4963C18.8279 36.4098 18.1968 36.4478 17.6019 36.4493L14.9001 36.4592C14.5769 36.4848 14.3328 36.5603 14.0607 36.7442ZM46.8579 39.5544C46.5184 40.0559 46.0415 40.4741 45.4338 40.6033C44.8093 40.7361 43.5976 40.6511 42.9238 40.6491C42.1713 40.6468 41.1723 40.7145 40.4538 40.594C40.1346 40.5404 39.8505 40.4193 39.5827 40.2379C39.3234 40.0622 39.1066 39.8397 38.9179 39.5908C38.6438 39.5939 38.3584 39.582 38.0863 39.6136C38.2629 39.926 38.4481 40.1935 38.6894 40.4594C39.107 40.8711 39.578 41.1597 40.1488 41.3045C40.7737 41.4631 41.5456 41.3872 42.191 41.3877L44.8787 41.3884C45.7134 41.3842 46.399 41.1287 46.9926 40.532C47.2737 40.2494 47.4848 39.9145 47.6464 39.5516C47.3843 39.5511 47.1197 39.5428 46.8579 39.5544ZM21.5516 40.0708C21.6432 39.9193 21.734 39.7722 21.8005 39.6076C21.4998 39.6059 21.1963 39.5954 20.8959 39.6076C20.6519 40.0436 20.3291 40.3842 19.8343 40.5214C19.6169 40.5816 19.3858 40.6085 19.1613 40.6229C18.3924 40.6719 17.6012 40.6362 16.8301 40.6352C16.1133 40.6343 15.3506 40.6851 14.6414 40.5893C14.415 40.5587 14.217 40.498 14.0199 40.3814C13.6874 40.1847 13.4386 39.9048 13.2453 39.5729C12.9367 39.558 12.6304 39.5659 12.3221 39.5592C12.6846 40.2532 13.3356 40.9921 14.105 41.2319C14.211 41.2654 14.3186 41.2928 14.4278 41.3141C14.537 41.3355 14.647 41.3506 14.7579 41.3595C15.5749 41.4219 16.4553 41.368 17.2768 41.3669C18.0164 41.3659 18.8184 41.4301 19.5514 41.3354C19.8648 41.2949 20.1529 41.2113 20.4318 41.0614C20.8615 40.8304 21.2747 40.4736 21.5516 40.0708ZM25.2747 36.7709C25.5555 36.763 25.8364 36.7529 26.1173 36.7568C26.1403 36.7217 26.1641 36.6872 26.1888 36.6533C26.2135 36.6193 26.2391 36.586 26.2654 36.5534C26.2917 36.5207 26.3188 36.4887 26.3468 36.4574C26.3747 36.4261 26.4034 36.3954 26.4328 36.3655C26.4623 36.3356 26.4925 36.3064 26.5233 36.278C26.5542 36.2496 26.5858 36.2219 26.618 36.1951C26.6502 36.1682 26.6831 36.1421 26.7167 36.1169C26.7502 36.0917 26.7843 36.0673 26.819 36.0437C26.8538 36.0202 26.8891 35.9975 26.9249 35.9757C26.9608 35.9539 26.9972 35.9329 27.0341 35.9129C27.0709 35.8929 27.1083 35.8738 27.1461 35.8556C27.184 35.8375 27.2222 35.8203 27.2609 35.804C27.2996 35.7877 27.3386 35.7724 27.3781 35.758C27.4175 35.7436 27.4573 35.7303 27.4974 35.7179C27.5375 35.7055 27.5778 35.6941 27.6185 35.6837C27.6592 35.6733 27.7001 35.6639 27.7412 35.6555C28.2326 35.5542 28.7703 35.6025 29.2704 35.6008L31.7943 35.5885C32.4805 35.5998 33.1342 35.8527 33.6169 36.3509C33.7309 36.4685 33.8234 36.6014 33.9145 36.7367C34.1887 36.7346 34.4648 36.7396 34.7386 36.7284C34.294 35.8921 33.6406 35.2646 32.7194 34.9817C32.0107 34.764 30.8295 34.8569 30.0691 34.8579C29.4466 34.8587 28.8123 34.8368 28.1914 34.8793C27.295 34.9137 26.4546 35.2107 25.834 35.8822C25.5926 36.1434 25.4145 36.4453 25.2747 36.7709ZM36.2597 37.5146C35.5841 37.5231 34.9085 37.5245 34.2328 37.5187C33.8888 37.5184 33.5145 37.4902 33.1755 37.5436C33.0667 37.5607 32.9626 37.6208 32.8852 37.6978C32.751 37.8315 32.6762 38.0303 32.6828 38.2192C32.6885 38.3799 32.7512 38.53 32.8726 38.6376C32.9771 38.7301 33.1113 38.77 33.2476 38.7864C33.6498 38.8347 34.0946 38.7901 34.5005 38.7872L36.6873 38.7918L38.61 38.7946C38.9522 38.7962 39.3294 38.8285 39.6675 38.7767C39.8056 38.7555 39.9402 38.7148 40.0431 38.6156C40.1554 38.5071 40.2007 38.3531 40.2 38.2002C40.1992 38.0138 40.1227 37.7709 39.9756 37.6469C39.9256 37.6048 39.8686 37.5693 39.8136 37.5342C39.2634 37.4783 38.6919 37.5134 38.139 37.5136C37.5133 37.5138 36.885 37.4883 36.2597 37.5146ZM32.8306 39.5369C32.7126 39.4607 32.5949 39.3862 32.4838 39.3001C32.1638 38.9787 31.9362 38.6305 31.9293 38.1582C31.9239 37.7814 32.0544 37.4155 32.3259 37.1497C32.5152 36.9643 32.7285 36.8679 32.9718 36.7737C32.1887 36.3239 31.4229 36.4105 30.5526 36.4162C30.5409 37.545 30.5415 38.6737 30.5544 39.8025C31.3473 39.8002 32.0954 39.8886 32.8306 39.5369ZM46.1915 37.5092C46.0038 37.5232 45.8548 37.5484 45.7251 37.6957C45.6273 37.8069 45.5781 37.9474 45.5289 38.0847C45.5611 38.2954 45.6214 38.5259 45.7976 38.6647C45.9026 38.7474 46.0399 38.7665 46.169 38.7795C46.7567 38.8385 47.3878 38.7919 47.9793 38.7906C48.5022 38.7894 49.0577 38.83 49.5771 38.7849C49.7929 38.7449 49.9607 38.696 50.0893 38.507C50.102 38.4879 50.1138 38.4683 50.1245 38.4481C50.1353 38.4278 50.145 38.4071 50.1536 38.3859C50.1622 38.3646 50.1698 38.343 50.1762 38.321C50.1826 38.299 50.1879 38.2768 50.192 38.2542C50.1962 38.2317 50.1992 38.209 50.201 38.1861C50.2028 38.1633 50.2034 38.1404 50.2029 38.1175C50.2024 38.0946 50.2008 38.0718 50.1979 38.049C50.1951 38.0263 50.1911 38.0038 50.1859 37.9814C50.1515 37.8281 50.0619 37.6975 49.9282 37.6143C49.826 37.5506 49.7073 37.5165 49.5882 37.5044C49.1743 37.4622 48.7235 37.5018 48.3053 37.5021C47.6038 37.5027 46.892 37.4768 46.1915 37.5092ZM27.1183 36.7962C27.5254 36.9963 27.8512 37.229 28.0077 37.679C28.139 38.0568 28.0978 38.4945 27.9123 38.8471C27.7353 39.1837 27.4862 39.3625 27.1573 39.5329C27.3736 39.6608 27.5761 39.7285 27.8213 39.7795C28.2998 39.8769 28.9395 39.8176 29.4375 39.8162L29.4249 36.3839C28.9672 36.3937 28.5093 36.3983 28.0515 36.3978C27.7139 36.4438 27.4012 36.6134 27.1183 36.7962ZM10.2292 37.5352C10.0398 37.5924 9.8831 37.6615 9.78255 37.8422C9.70755 37.977 9.68406 38.1659 9.72636 38.3145C9.77118 38.4716 9.89277 38.5849 10.0363 38.6549C10.1646 38.7174 10.302 38.7451 10.443 38.7602C11.0007 38.8203 11.6098 38.7731 12.1722 38.77C12.7876 38.7666 13.4056 38.7995 14.0201 38.7588C14.2227 38.7053 14.3819 38.6091 14.4932 38.426C14.5721 38.2962 14.5952 38.1438 14.5509 37.9979C14.4986 37.8255 14.3652 37.6933 14.2048 37.6175C14.0819 37.5593 13.9468 37.5342 13.8118 37.5257C13.3859 37.4992 12.9396 37.536 12.5109 37.5355C11.7527 37.5345 10.9864 37.508 10.2292 37.5352ZM26.1319 39.6116L25.2843 39.6107C25.4808 40.0029 25.6945 40.3057 26.0097 40.6108C26.3947 40.919 26.7685 41.158 27.2501 41.2832C28.0037 41.4792 29.4438 41.3971 30.2632 41.3981C30.8762 41.399 31.5269 41.4431 32.1356 41.3762C32.9908 41.2821 33.7235 40.8688 34.2538 40.1969C34.4058 40.0044 34.5486 39.7989 34.6667 39.5837C34.3596 39.5697 34.0568 39.5729 33.7497 39.5819C33.5055 40.0512 33.0732 40.3464 32.5772 40.507C32.3916 40.5671 32.1919 40.5912 31.9978 40.6039C31.2451 40.6534 30.464 40.6092 29.7089 40.6071C29.084 40.6054 28.4086 40.6563 27.7904 40.5787C27.4811 40.5399 27.1965 40.4573 26.9202 40.3111C26.6091 40.1463 26.3275 39.9056 26.1319 39.6116ZM40.4965 34.8703C39.657 35.0181 38.9013 35.4058 38.3996 36.1139C38.2696 36.2973 38.1536 36.5015 38.0652 36.7083C38.3501 36.6884 38.6331 36.6888 38.9183 36.6899C39.3412 36.133 39.7973 35.7715 40.5072 35.6712C41.166 35.5781 41.9765 35.649 42.6514 35.6504C43.5467 35.6523 44.4653 35.6006 45.358 35.6564C45.9596 35.7614 46.4853 35.9754 46.8452 36.4936C46.8879 36.5544 46.9271 36.6175 46.9628 36.6827L47.8172 36.6809C47.3891 35.8685 46.815 35.2909 45.9249 35.01C45.1448 34.7638 43.4021 34.8571 42.5444 34.8557C41.8727 34.8546 41.1644 34.8126 40.4965 34.8703ZM26.6966 38.8164C26.8976 38.8026 27.0563 38.7611 27.1922 38.6019C27.2061 38.5858 27.2192 38.5691 27.2313 38.5516C27.2434 38.5342 27.2546 38.5162 27.2648 38.4975C27.275 38.4789 27.2842 38.4598 27.2924 38.4402C27.3006 38.4206 27.3077 38.4006 27.3138 38.3802C27.3199 38.3599 27.3248 38.3392 27.3287 38.3183C27.3326 38.2975 27.3354 38.2765 27.337 38.2553C27.3387 38.2341 27.3392 38.2129 27.3386 38.1917C27.338 38.1704 27.3363 38.1493 27.3334 38.1282C27.3102 37.9446 27.1787 37.7318 27.0245 37.6286C26.9165 37.5564 26.7719 37.542 26.6457 37.5332C26.1986 37.5022 25.7385 37.5397 25.2892 37.5365L21.4243 37.5385C21.096 37.5381 20.6996 37.5859 20.3804 37.5349C20.1684 37.5694 19.9757 37.6047 19.8426 37.7937C19.7334 37.9488 19.7097 38.1478 19.6913 38.3318C19.7726 38.5176 19.8512 38.6517 20.0457 38.7307C20.1317 38.7656 20.2227 38.7911 20.3155 38.7977C20.778 38.8304 21.2586 38.8022 21.7227 38.8037L24.7284 38.7981C25.3833 38.7958 26.0428 38.7791 26.6966 38.8164ZM15.3678 34.9074C14.3881 34.9159 13.5658 35.0532 12.8426 35.7792C12.5708 36.052 12.3641 36.377 12.2138 36.7302C12.5092 36.7289 12.8048 36.7305 13.0998 36.7154C13.3654 36.2405 13.7992 35.8732 14.3292 35.7275C14.8177 35.5932 15.3797 35.6354 15.8835 35.6355C16.8339 35.6356 17.8104 35.6843 18.758 35.6316C19.5297 35.6424 20.2561 35.753 20.8183 36.333C20.9389 36.4575 21.0416 36.6 21.1308 36.7482C21.4131 36.7474 21.6998 36.7574 21.9814 36.7421C21.4996 35.8855 20.9148 35.2677 19.9435 34.9954C19.3217 34.8211 18.6249 34.9005 17.9843 34.9005L15.3678 34.9074Z" fill="white"/>
<path d="M23.3691 20.025C23.4406 20.1059 23.4911 20.22 23.5504 20.3114C23.7112 20.5589 23.8948 20.799 24.1215 20.9899C24.6094 21.4012 25.2045 21.664 25.7536 21.9801C27.2399 22.8357 28.8039 24.021 29.3945 25.6927C29.5934 26.2558 29.777 27.0912 29.5075 27.6529C29.433 27.7228 29.3547 27.769 29.2529 27.7862C28.5574 27.9044 27.2761 27.1957 26.7381 26.788C24.4256 25.0358 23.7526 22.7595 23.3691 20.025Z" fill="white"/>
<path d="M36.6096 15.2867C36.646 15.4999 36.5692 15.8139 36.5314 16.0258C36.2947 17.3528 35.8761 18.7189 35.2122 19.8976C35.164 19.9839 35.114 20.0692 35.0621 20.1534C35.0102 20.2375 34.9564 20.3205 34.9009 20.4023C34.8454 20.4841 34.7881 20.5647 34.7291 20.644C34.6701 20.7233 34.6093 20.8013 34.5469 20.8779C34.4844 20.9546 34.4203 21.0298 34.3546 21.1037C34.2889 21.1776 34.2215 21.25 34.1526 21.3209C34.0838 21.3918 34.0134 21.4612 33.9415 21.529C33.8696 21.5969 33.7962 21.6631 33.7213 21.7278C33.6465 21.7924 33.5704 21.8554 33.4928 21.9167C33.4152 21.9781 33.3364 22.0377 33.2562 22.0956C33.1761 22.1534 33.0947 22.2095 33.0121 22.2639C32.9294 22.3182 32.8457 22.3707 32.7608 22.4214C32.6759 22.472 32.5899 22.5208 32.5029 22.5677C32.4158 22.6146 32.3278 22.6596 32.2388 22.7027C32.1498 22.7458 32.0599 22.7869 31.9691 22.8261C31.8784 22.8652 31.7868 22.9023 31.6943 22.9375C31.496 23.0147 31.2957 23.1028 31.0898 23.1573C30.8751 23.2142 30.7009 23.2201 30.5071 23.1059C30.441 23.0238 30.3832 22.9363 30.354 22.834C30.2393 22.4331 30.3949 21.9034 30.4898 21.5047C30.658 20.7976 30.9996 20.1367 31.4473 19.5665C32.2819 18.5034 33.3746 17.8608 34.5144 17.1827C34.9979 16.8951 35.4881 16.6149 35.8991 16.2252C36.1889 15.9504 36.4107 15.6312 36.6096 15.2867Z" fill="white"/>
<path d="M23.3442 15.3433C23.57 15.5552 23.7538 15.9908 24.0665 16.2765C24.8082 16.9542 25.7937 17.3379 26.6266 17.8938C27.9731 18.7927 29.22 20.0143 29.542 21.6572C29.6287 22.0998 29.7682 22.6137 29.4963 23.0156C29.4431 23.0646 29.378 23.1135 29.3073 23.132C28.8408 23.2542 27.777 22.6926 27.3741 22.4604C25.0978 21.1484 24.2373 19.2805 23.6524 16.8436C23.5367 16.3616 23.488 15.8619 23.3561 15.3854L23.3442 15.3433Z" fill="white"/>
<path d="M36.5461 20.1199C36.5712 20.3722 36.4759 20.7158 36.4292 20.9674C36.1741 22.3435 35.7761 23.6333 35.0484 24.8403C34.2705 26.1306 33.1803 26.9578 31.7994 27.5087C31.5588 27.6046 31.3114 27.726 31.0582 27.7825C30.8553 27.8277 30.7013 27.8234 30.523 27.7127C30.4783 27.6516 30.4393 27.5814 30.4152 27.5094C30.2893 27.1321 30.4411 26.5153 30.5279 26.1339C30.6891 25.4248 31.0086 24.8285 31.4472 24.2525C31.9499 23.5922 32.5604 23.0523 33.2549 22.6011C34.3678 21.8779 35.9442 21.4072 36.5461 20.1199Z" fill="white"/>
<path d="M23.4116 10.8329C23.5156 10.9273 23.6061 11.1083 23.6876 11.226C23.8525 11.4642 24.0257 11.6886 24.2367 11.8882C24.8316 12.4514 25.9746 12.9842 26.7 13.4378C28.0259 14.2671 29.1471 15.2859 29.5016 16.8745C29.6038 17.3322 29.7633 18.0476 29.4976 18.4623C29.4465 18.5091 29.3954 18.5449 29.3268 18.5601C28.7619 18.6857 27.5895 17.9979 27.0883 17.6838C25.5038 16.6907 24.3862 15.0265 23.9122 13.2312C23.7031 12.4389 23.5944 11.6298 23.4116 10.8329Z" fill="white"/>
<path d="M36.548 10.8624C36.5672 11.131 36.4759 11.4466 36.4198 11.71C36.1782 12.8458 35.8584 13.894 35.3356 14.9335C34.4682 16.6582 33.0792 17.89 31.2317 18.4895C30.9664 18.5756 30.7479 18.6085 30.4943 18.4787C30.4493 18.4123 30.4094 18.3429 30.3866 18.2654C30.2632 17.8448 30.3953 17.2762 30.4842 16.8546C30.9058 14.8562 32.4184 13.9159 34.0606 12.9848C35.0502 12.4237 35.9854 11.8961 36.548 10.8624Z" fill="white"/>
<path d="M23.3276 24.7393C23.4292 24.8391 23.5095 24.9868 23.5941 25.1034C23.823 25.4188 24.0613 25.7113 24.3711 25.9513C24.8617 26.3312 25.4437 26.5926 25.9841 26.8937C27.2174 27.5809 28.4537 28.5957 28.9356 29.9652C29.1649 30.6167 29.2521 31.3167 28.9439 31.9557C28.8649 32.0579 28.7648 32.1393 28.6379 32.1719C28.1111 32.3074 27.2728 31.8464 26.8385 31.5748C25.1114 30.4948 24.1649 28.6111 23.7116 26.6874C23.5594 26.0417 23.4789 25.3835 23.3276 24.7393Z" fill="white"/>
<path d="M36.5747 24.8361C36.6117 25.0043 36.5006 25.3486 36.4669 25.5261C36.2269 26.7901 35.9282 28.0403 35.2781 29.1656C34.5694 30.3922 33.6012 31.1836 32.3255 31.7713C32.0961 31.877 31.8446 32.0259 31.5997 32.0842C31.4029 32.1311 31.2848 32.1041 31.1147 32.0013C31.0604 31.9383 31.0109 31.8773 30.9874 31.7961C30.8816 31.4292 30.9915 30.8806 31.038 30.4993C31.1293 29.7529 31.3983 29.1294 31.862 28.5371C32.3212 27.9506 32.8863 27.4812 33.5197 27.0934C34.6107 26.4256 35.9043 26.0192 36.5747 24.8361Z" fill="white"/>
<path d="M29.9732 8.62939C30.0765 8.7733 30.1437 8.98887 30.2139 9.15293C30.6018 10.0591 30.9991 11.0458 31.1381 12.0255C31.2618 12.8981 31.2653 14.1704 30.6905 14.9042C30.5037 15.1427 30.3122 15.2466 30.0176 15.2841C29.9269 15.2837 29.8261 15.2697 29.7411 15.2378C29.3909 15.1063 29.1925 14.7698 29.0578 14.4417C28.3378 12.6891 29.2921 10.2778 29.9732 8.62939Z" fill="white"/>
<path d="M29.4191 42.8639C29.8075 42.8729 30.196 42.876 30.5845 42.8732L30.5803 48.5235L30.5843 50.2387C30.585 50.6153 30.603 51.013 30.5548 51.3865C30.5384 51.5139 30.4754 51.594 30.401 51.6959C30.3049 51.7781 30.2149 51.826 30.0879 51.8375C29.9233 51.8523 29.7549 51.8019 29.6326 51.6894C29.5251 51.5904 29.4726 51.4703 29.4521 51.3272C29.3996 50.9607 29.4249 50.5715 29.426 50.2014L29.4226 48.6655L29.4191 42.8639Z" fill="white"/>
<path d="M29.4489 29.4247C29.6673 29.4419 30.1672 29.3373 30.3415 29.4779C30.4575 29.5715 30.5015 29.8034 30.5193 29.9411C30.564 30.2856 30.5313 30.6689 30.5328 31.0182L30.5319 33.5093C30.1705 33.5256 29.8031 33.5143 29.4409 33.5162C29.4686 32.1563 29.4689 30.7847 29.4489 29.4247Z" fill="white"/>
</svg>
