<svg width="48" height="48" viewBox="0 0 48 48" fill="none" xmlns="http://www.w3.org/2000/svg">
<path d="M40.2 18.4401C36.58 18.4401 35.1 15.8801 36.9 12.7401C37.94 10.9201 37.32 8.60012 35.5 7.56012L32.04 5.58012C30.46 4.64012 28.42 5.20012 27.48 6.78012L27.26 7.16012C25.46 10.3001 22.5 10.3001 20.68 7.16012L20.46 6.78012C19.56 5.20012 17.52 4.64012 15.94 5.58012L12.48 7.56012C10.66 8.60012 10.04 10.9401 11.08 12.7601C12.9 15.8801 11.42 18.4401 7.8 18.4401C5.72 18.4401 4 20.1401 4 22.2401V25.7601C4 27.8401 5.7 29.5601 7.8 29.5601C11.42 29.5601 12.9 32.1201 11.08 35.2601C10.04 37.0801 10.66 39.4001 12.48 40.4401L15.94 42.4201C17.52 43.3601 19.56 42.8001 20.5 41.2201L20.72 40.8401C22.52 37.7001 25.48 37.7001 27.3 40.8401L27.52 41.2201C28.46 42.8001 30.5 43.3601 32.08 42.4201L35.54 40.4401C37.36 39.4001 37.98 37.0601 36.94 35.2601C35.12 32.1201 36.6 29.5601 40.22 29.5601C42.3 29.5601 44.02 27.8601 44.02 25.7601V22.2401C44 20.1601 42.3 18.4401 40.2 18.4401ZM24 30.5001C20.42 30.5001 17.5 27.5801 17.5 24.0001C17.5 20.4201 20.42 17.5001 24 17.5001C27.58 17.5001 30.5 20.4201 30.5 24.0001C30.5 27.5801 27.58 30.5001 24 30.5001Z" fill="black"/>
</svg>
