<svg width="51" height="51" viewBox="0 0 51 51" fill="none" xmlns="http://www.w3.org/2000/svg">
<path d="M36.2025 0H14.8229C5.53626 0 0 5.5335 0 14.8155V36.159C0 45.4665 5.53626 51 14.8229 51H36.177C45.4637 51 50.9999 45.4665 50.9999 36.1845V14.8155C51.0254 5.5335 45.4892 0 36.2025 0ZM38.2691 38.8875H12.7564C11.7103 38.8875 10.8429 38.0205 10.8429 36.975C10.8429 35.9295 11.7103 35.0625 12.7564 35.0625H38.2691C39.3151 35.0625 40.1825 35.9295 40.1825 36.975C40.1825 38.0205 39.3151 38.8875 38.2691 38.8875ZM38.2691 27.4125H12.7564C11.7103 27.4125 10.8429 26.5455 10.8429 25.5C10.8429 24.4545 11.7103 23.5875 12.7564 23.5875H38.2691C39.3151 23.5875 40.1825 24.4545 40.1825 25.5C40.1825 26.5455 39.3151 27.4125 38.2691 27.4125ZM38.2691 15.9375H12.7564C11.7103 15.9375 10.8429 15.0705 10.8429 14.025C10.8429 12.9795 11.7103 12.1125 12.7564 12.1125H38.2691C39.3151 12.1125 40.1825 12.9795 40.1825 14.025C40.1825 15.0705 39.3151 15.9375 38.2691 15.9375Z" fill="white"/>
</svg>
